<svg xmlns="http://www.w3.org/2000/svg" viewBox="0 0 1600 1000" preserveAspectRatio="xMidYMid slice">
  <defs>
    <linearGradient id="sky" x1="0" y1="0" x2="1" y2="1">
      <stop offset="0" stop-color="#dbeafe"/>
      <stop offset="0.55" stop-color="#f8fafc"/>
      <stop offset="1" stop-color="#fde68a"/>
    </linearGradient>
    <linearGradient id="glass" x1="0" y1="0" x2="1" y2="1">
      <stop offset="0" stop-color="#0f3a67"/>
      <stop offset="1" stop-color="#1d5c99"/>
    </linearGradient>
    <filter id="shadow" x="-20%" y="-20%" width="140%" height="140%">
      <feDropShadow dx="0" dy="26" stdDeviation="28" flood-color="#0f172a" flood-opacity=".18"/>
    </filter>
  </defs>
  <rect width="1600" height="1000" fill="url(#sky)"/>
  <circle cx="1280" cy="160" r="90" fill="#fbbf24" opacity=".55"/>
  <path d="M0 760 C220 700 330 770 520 715 C780 640 940 725 1160 665 C1370 605 1480 655 1600 620 L1600 1000 L0 1000 Z" fill="#bfdbfe" opacity=".55"/>
  <path d="M0 835 C270 780 430 855 660 790 C870 730 1080 830 1300 760 C1450 715 1530 745 1600 720 L1600 1000 L0 1000 Z" fill="#94a3b8" opacity=".20"/>
  <g filter="url(#shadow)" opacity=".94">
    <rect x="210" y="265" width="245" height="520" rx="28" fill="url(#glass)"/>
    <rect x="500" y="190" width="325" height="595" rx="34" fill="#082f56"/>
    <rect x="870" y="310" width="265" height="475" rx="30" fill="#164e83"/>
    <rect x="1180" y="250" width="210" height="535" rx="26" fill="#0b3b69"/>
    <g fill="#e0f2fe" opacity=".9">
      <rect x="250" y="320" width="58" height="42" rx="8"/><rect x="350" y="320" width="58" height="42" rx="8"/>
      <rect x="250" y="405" width="58" height="42" rx="8"/><rect x="350" y="405" width="58" height="42" rx="8"/>
      <rect x="250" y="490" width="58" height="42" rx="8"/><rect x="350" y="490" width="58" height="42" rx="8"/>
      <rect x="250" y="575" width="58" height="42" rx="8"/><rect x="350" y="575" width="58" height="42" rx="8"/>
      <rect x="550" y="255" width="72" height="48" rx="9"/><rect x="655" y="255" width="72" height="48" rx="9"/>
      <rect x="550" y="360" width="72" height="48" rx="9"/><rect x="655" y="360" width="72" height="48" rx="9"/>
      <rect x="550" y="465" width="72" height="48" rx="9"/><rect x="655" y="465" width="72" height="48" rx="9"/>
      <rect x="550" y="570" width="72" height="48" rx="9"/><rect x="655" y="570" width="72" height="48" rx="9"/>
      <rect x="915" y="365" width="64" height="44" rx="8"/><rect x="1025" y="365" width="64" height="44" rx="8"/>
      <rect x="915" y="460" width="64" height="44" rx="8"/><rect x="1025" y="460" width="64" height="44" rx="8"/>
      <rect x="915" y="555" width="64" height="44" rx="8"/><rect x="1025" y="555" width="64" height="44" rx="8"/>
      <rect x="1225" y="315" width="48" height="42" rx="8"/><rect x="1300" y="315" width="48" height="42" rx="8"/>
      <rect x="1225" y="405" width="48" height="42" rx="8"/><rect x="1300" y="405" width="48" height="42" rx="8"/>
      <rect x="1225" y="495" width="48" height="42" rx="8"/><rect x="1300" y="495" width="48" height="42" rx="8"/>
    </g>
    <rect x="690" y="675" width="90" height="110" rx="16" fill="#fbbf24" opacity=".9"/>
  </g>
  <g opacity=".72">
    <path d="M150 835 C270 710 430 710 565 835" fill="none" stroke="#16a34a" stroke-width="38" stroke-linecap="round"/>
    <path d="M1030 838 C1180 695 1370 715 1510 838" fill="none" stroke="#22c55e" stroke-width="42" stroke-linecap="round"/>
    <rect x="0" y="785" width="1600" height="215" fill="#14532d" opacity=".25"/>
  </g>
</svg>
